<?xml version="1.0" standalone="no"?>
<!DOCTYPE svg PUBLIC "-//W3C//DTD SVG 20010904//EN"
 "http://www.w3.org/TR/2001/REC-SVG-20010904/DTD/svg10.dtd">
<svg version="1.0" xmlns="http://www.w3.org/2000/svg"
 width="1184.000000pt" height="1184.000000pt" viewBox="0 0 1184.000000 1184.000000"
 preserveAspectRatio="xMidYMid meet">
<metadata>
Created by potrace 1.14, written by Peter Selinger 2001-2017
</metadata>
<g transform="translate(0.000000,1184.000000) scale(0.100000,-0.100000)"
fill="#000000" stroke="none">
<path d="M3411 8873 c-50 -25 -65 -58 -100 -221 -36 -171 -38 -211 -12 -243
19 -24 21 -24 263 -27 265 -4 298 1 342 47 24 25 33 53 62 183 41 188 42 221
9 253 l-24 25 -253 0 c-215 0 -258 -3 -287 -17z"/>
<path d="M5429 8652 c-65 -22 -139 -70 -167 -110 -11 -15 -54 -103 -96 -197
-102 -224 -139 -289 -202 -353 -64 -64 -153 -108 -325 -162 -159 -50 -184 -73
-219 -201 -34 -125 -36 -159 -11 -191 31 -38 99 -57 251 -69 74 -6 136 -12
137 -12 1 -1 -37 -162 -83 -357 -393 -1652 -446 -1879 -451 -1956 -18 -248 99
-412 334 -471 57 -14 117 -17 358 -16 314 0 415 10 536 50 101 33 166 83 204
158 27 53 30 68 30 152 0 143 -15 151 -222 118 -229 -37 -389 -1 -458 103 -32
49 -49 131 -41 201 4 30 54 249 113 485 58 237 161 658 230 936 68 278 129
518 135 534 6 15 25 37 42 47 29 17 55 19 336 19 168 0 320 4 339 10 70 20
109 80 141 215 33 140 26 184 -31 204 -21 7 -143 11 -349 11 -361 0 -347 -3
-337 78 3 26 42 159 87 295 92 285 102 341 72 410 -29 66 -62 80 -192 84 -81
2 -118 -1 -161 -15z"/>
<path d="M3160 7890 c-187 -19 -326 -67 -389 -133 -28 -30 -40 -59 -72 -173
-62 -218 -60 -224 99 -224 89 0 113 -3 139 -20 42 -25 73 -87 73 -145 0 -25
-42 -219 -94 -432 -52 -214 -183 -749 -290 -1190 -204 -836 -214 -889 -181
-953 29 -57 42 -60 241 -60 201 0 272 13 338 63 73 57 42 -64 671 2576 74 310
135 579 135 596 0 35 -27 66 -75 86 -37 16 -466 22 -595 9z"/>
<path d="M1670 7871 c-224 -61 -409 -229 -496 -452 -23 -58 -31 -69 -48 -67
-19 3 -22 14 -33 141 -19 209 -44 291 -105 342 -32 27 -34 28 -138 22 -198
-11 -735 -83 -768 -102 -45 -27 -74 -87 -79 -164 -4 -57 -2 -71 19 -100 32
-49 69 -67 195 -99 138 -36 194 -67 222 -125 21 -43 21 -45 21 -1278 0 -812 4
-1249 11 -1279 14 -60 52 -108 108 -134 68 -31 256 -30 358 2 86 27 149 72
183 132 l25 45 5 970 c6 1079 2 1011 76 1163 65 134 183 237 337 294 80 30 88
31 307 37 259 8 270 11 313 89 36 66 61 212 54 320 -8 143 -64 214 -192 247
-84 21 -290 19 -375 -4z"/>
<path d="M7238 7845 c-402 -53 -436 -63 -481 -135 -19 -30 -22 -50 -22 -132 0
-83 3 -101 21 -125 32 -43 71 -61 178 -82 119 -24 178 -56 209 -114 l22 -42 5
-1265 c5 -1244 5 -1266 25 -1300 62 -107 315 -131 500 -46 73 33 129 91 143
149 9 33 12 321 12 1045 0 948 1 1002 19 1053 25 73 51 113 112 176 128 130
329 218 577 254 248 35 398 -24 482 -191 68 -135 64 -58 70 -1290 5 -1095 5
-1116 25 -1150 91 -157 546 -114 635 59 20 40 20 55 20 1069 0 1143 -2 1099
67 1200 121 177 404 294 768 318 278 18 407 -117 435 -455 5 -64 10 -567 10
-1129 0 -1092 -2 -1039 52 -1088 114 -104 413 -92 547 22 77 66 71 -39 71
1261 0 1267 0 1265 -55 1430 -94 278 -270 453 -512 507 -299 66 -869 -61
-1312 -295 -73 -38 -104 -49 -140 -49 -41 0 -49 4 -64 30 -56 94 -197 213
-328 275 -276 131 -659 61 -1282 -234 -70 -34 -141 -61 -157 -61 -40 0 -95 50
-114 103 -8 23 -18 69 -21 102 -14 122 -47 162 -143 170 -26 2 -194 -16 -374
-40z"/>
<path d="M667 3720 c-108 -28 -167 -96 -167 -196 0 -111 46 -148 245 -200 157
-41 184 -52 215 -91 18 -23 21 -37 18 -82 -4 -47 -10 -59 -41 -87 -76 -70
-237 -74 -326 -7 -35 27 -70 92 -71 131 0 19 -5 22 -36 22 l-36 0 7 -42 c15
-89 64 -151 150 -189 72 -33 218 -33 290 -1 63 29 93 56 116 107 32 70 22 154
-24 203 -35 38 -90 61 -234 97 -153 39 -179 52 -199 101 -18 44 -4 106 32 139
69 64 249 55 308 -16 14 -16 30 -48 36 -69 10 -37 13 -40 46 -40 32 0 34 2 28
28 -20 93 -57 141 -132 174 -50 23 -169 32 -225 18z"/>
<path d="M2040 3715 c-79 -25 -140 -81 -185 -169 l-40 -79 0 -131 c0 -121 2
-135 26 -187 36 -76 90 -133 157 -166 50 -24 69 -28 147 -28 78 0 97 4 147 28
88 43 142 116 166 225 l10 42 -37 0 c-36 0 -37 -1 -49 -52 -27 -117 -113 -183
-237 -183 -108 1 -186 52 -237 154 -20 41 -23 61 -23 171 0 117 2 128 27 176
87 165 284 205 410 84 29 -28 50 -58 54 -78 6 -29 10 -32 44 -32 l38 0 -10 38
c-33 122 -155 203 -302 201 -34 0 -81 -7 -106 -14z"/>
<path d="M6077 3720 c-105 -27 -167 -101 -167 -200 0 -101 62 -150 244 -195
193 -47 236 -76 236 -162 0 -57 -22 -95 -74 -125 -35 -19 -55 -23 -131 -23
-74 0 -98 4 -132 22 -50 27 -78 64 -94 126 -11 44 -14 47 -44 47 l-32 0 8 -49
c14 -89 56 -143 144 -182 41 -19 68 -23 145 -23 105 0 169 20 224 72 84 79 74
229 -20 290 -32 21 -104 44 -277 87 -95 24 -127 56 -127 125 0 45 4 56 33 85
101 101 315 58 349 -71 11 -41 14 -44 46 -44 34 0 34 0 28 38 -20 111 -115
182 -249 188 -40 2 -89 -1 -110 -6z"/>
<path d="M6796 3711 c-99 -41 -149 -90 -198 -196 -20 -44 -23 -66 -23 -175 0
-119 1 -128 31 -190 39 -81 91 -135 163 -169 47 -22 70 -26 146 -26 76 0 99 4
145 26 79 37 125 81 160 153 104 211 31 476 -155 565 -70 34 -200 39 -269 12z
m240 -69 c101 -52 159 -164 158 -307 -1 -112 -24 -175 -88 -241 -76 -77 -166
-101 -272 -69 -116 34 -184 137 -192 291 -9 172 56 292 184 340 54 20 157 13
210 -14z"/>
<path d="M9796 3711 c-99 -41 -149 -90 -198 -196 -20 -44 -23 -66 -23 -175 0
-119 1 -128 31 -191 38 -81 90 -133 163 -168 47 -22 70 -26 146 -26 76 0 99 4
145 26 79 37 125 81 160 153 81 164 54 383 -62 498 -65 65 -126 91 -228 95
-67 3 -95 -1 -134 -16z m240 -69 c60 -30 118 -101 140 -169 23 -74 24 -189 0
-266 -33 -111 -147 -197 -261 -197 -98 0 -195 63 -241 156 -35 73 -45 211 -20
296 26 91 90 163 172 194 54 20 157 13 210 -14z"/>
<path d="M11345 3724 c-123 -31 -185 -98 -185 -199 0 -106 59 -154 242 -199
193 -47 238 -77 238 -163 0 -57 -22 -95 -74 -125 -35 -19 -55 -23 -131 -23
-74 0 -98 4 -132 22 -50 27 -78 64 -94 126 -10 42 -14 47 -40 47 -26 0 -29 -3
-29 -35 0 -78 59 -159 142 -195 63 -28 195 -33 270 -11 57 16 125 72 144 118
19 44 17 131 -4 170 -34 63 -82 86 -260 129 -114 27 -176 54 -192 83 -5 11
-10 41 -10 66 0 175 336 182 382 9 11 -41 14 -44 46 -44 34 0 34 0 28 38 -20
111 -115 183 -249 188 -40 2 -81 1 -92 -2z"/>
<path d="M1190 3340 l0 -370 260 0 260 0 0 30 0 30 -225 0 -225 0 0 145 0 145
210 0 210 0 0 30 0 30 -207 2 -208 3 -3 133 -3 132 226 0 225 0 0 30 0 30
-260 0 -260 0 0 -370z"/>
<path d="M2592 3438 c6 -293 11 -325 63 -394 78 -103 316 -122 425 -35 84 67
100 142 100 474 l0 227 -40 0 -40 0 0 -267 c0 -154 -5 -284 -10 -305 -25 -90
-114 -137 -233 -124 -86 9 -139 42 -166 105 -20 47 -21 66 -21 320 l0 271 -41
0 -41 0 4 -272z"/>
<path d="M3350 3340 l0 -370 35 0 35 0 0 165 0 165 148 0 c228 -1 252 -19 266
-205 10 -124 10 -125 56 -125 38 0 39 1 30 26 -6 14 -14 72 -19 128 -10 119
-27 160 -76 183 -19 9 -35 19 -35 22 0 4 14 12 30 19 52 24 84 76 88 147 2 35
-1 79 -8 99 -14 44 -67 92 -117 105 -21 6 -127 11 -235 11 l-198 0 0 -370z
m413 296 c50 -21 70 -50 75 -111 6 -70 -10 -109 -57 -137 -33 -21 -50 -23
-198 -26 l-163 -4 0 146 0 146 155 0 c109 0 165 -4 188 -14z"/>
<path d="M4078 3340 l2 -370 35 0 35 0 0 370 0 370 -37 0 -38 0 3 -370z"/>
<path d="M4250 3680 l0 -30 130 0 130 0 0 -340 0 -340 35 0 35 0 0 340 0 340
130 0 130 0 0 30 0 30 -295 0 -295 0 0 -30z"/>
<path d="M4860 3705 c0 -3 65 -102 145 -219 l145 -214 0 -151 0 -151 35 0 35
0 0 156 0 156 145 214 145 214 -40 0 -40 0 -121 -182 c-67 -101 -122 -184
-124 -186 -1 -1 -57 81 -125 183 l-123 185 -38 0 c-22 0 -39 -2 -39 -5z"/>
<path d="M7410 3340 l0 -370 245 0 245 0 0 30 0 30 -210 0 -210 0 0 340 0 340
-35 0 -35 0 0 -370z"/>
<path d="M7992 3423 l3 -288 29 -53 c32 -58 96 -107 155 -119 64 -14 184 -8
234 11 54 20 116 86 137 143 10 27 15 115 17 316 l4 277 -34 0 -35 0 -4 -272
c-3 -268 -3 -274 -28 -323 -31 -61 -74 -92 -145 -100 -131 -17 -221 29 -250
129 -12 38 -15 109 -15 308 l0 258 -36 0 -35 0 3 -287z"/>
<path d="M8660 3680 l0 -30 130 0 130 0 0 -340 0 -340 35 0 35 0 0 340 0 340
130 0 130 0 0 30 0 30 -295 0 -295 0 0 -30z"/>
<path d="M9350 3340 l0 -370 35 0 35 0 0 370 0 370 -35 0 -35 0 0 -370z"/>
<path d="M10410 3340 l0 -370 30 0 30 0 2 323 3 322 24 -40 c12 -22 111 -167
218 -322 l195 -283 39 0 39 0 0 370 0 370 -36 0 -37 0 5 -324 6 -324 -102 151
c-56 84 -155 230 -221 325 -119 172 -119 172 -157 172 l-38 0 0 -370z"/>
</g>
</svg>
